<svg width="81" height="80" viewBox="0 0 81 80" fill="none" xmlns="http://www.w3.org/2000/svg">
<path d="M38.0762 1.1547C39.3138 0.440171 40.8386 0.440169 42.0762 1.1547L72.7172 18.8453C73.9548 19.5598 74.7172 20.8803 74.7172 22.3094V57.6906C74.7172 59.1197 73.9548 60.4402 72.7172 61.1547L42.0762 78.8453C40.8386 79.5598 39.3138 79.5598 38.0762 78.8453L7.43516 61.1547C6.19755 60.4402 5.43515 59.1197 5.43515 57.6906V22.3094C5.43515 20.8803 6.19755 19.5598 7.43515 18.8453L38.0762 1.1547Z" fill="#00BEF2"/>
<path d="M39.9453 64.6148C35.3987 64.6148 31.2771 63.5721 27.5804 61.4868C23.9261 59.3561 21.0367 56.4321 18.9122 52.7148C16.8301 48.9521 15.7891 44.7135 15.7891 39.9988C15.7891 35.2841 16.8301 31.0681 18.9122 27.3508C21.0367 23.5881 23.9261 20.6641 27.5804 18.5788C31.2771 16.4481 35.42 15.3828 40.009 15.3828C43.8757 15.3828 47.36 16.1081 50.4619 17.5588C53.6062 19.0095 56.2407 21.0948 58.3652 23.8148L51.7366 30.3428C48.7197 26.6255 44.9805 24.7668 40.5189 24.7668C37.757 24.7668 35.2925 25.4241 33.1255 26.7388C30.9584 28.0081 29.2588 29.7988 28.0265 32.1108C26.8368 34.4228 26.2419 37.0521 26.2419 39.9988C26.2419 42.9455 26.8368 45.5748 28.0265 47.8868C29.2588 50.1988 30.9584 52.0121 33.1255 53.3268C35.2925 54.5961 37.757 55.2308 40.5189 55.2308C44.9805 55.2308 48.7197 53.3495 51.7366 49.5868L58.3652 56.1148C56.2407 58.8801 53.6062 60.9881 50.4619 62.4388C47.3175 63.8895 43.812 64.6148 39.9453 64.6148Z" fill="white"/>
<path d="M67.8975 41.5951H70.457V43.7411H67.6415L67.2478 46.8912H65.023L65.4167 43.7411H62.5226L62.1288 46.8912H59.9237L60.3175 43.7411H57.7383V41.5951H60.5734L60.9869 38.4055H58.4077V36.2595H61.2428L61.6366 33.1094H63.8417L63.4479 36.2595H66.3421L66.7359 33.1094H68.941L68.5472 36.2595H71.1067L71.1264 38.4055H68.2912L67.8975 41.5951ZM65.6727 41.5951L66.0861 38.4055H63.192L62.7785 41.5951H65.6727Z" fill="white"/>
</svg>
